<svg xmlns="http://www.w3.org/2000/svg" width="24" height="19" fill="none" viewBox="0 0 24 19"><path fill="#fff" d="M20.317 1.84A19.791 19.791 0 0 0 15.432.326a.074.074 0 0 0-.079.038c-.21.375-.444.864-.608 1.25a18.27 18.27 0 0 0-5.487 0 12.64 12.64 0 0 0-.617-1.25.077.077 0 0 0-.079-.037c-1.687.29-3.33.8-4.885 1.515a.07.07 0 0 0-.032.027C.533 6.517-.32 11.051.099 15.528a.082.082 0 0 0 .031.057 19.9 19.9 0 0 0 5.993 3.03.078.078 0 0 0 .084-.028c.462-.63.874-1.296 1.227-1.995a.076.076 0 0 0-.042-.105 13.107 13.107 0 0 1-1.872-.893.077.077 0 0 1-.008-.127 10.2 10.2 0 0 0 .372-.292.074.074 0 0 1 .077-.01c3.928 1.793 8.18 1.793 12.062 0a.075.075 0 0 1 .078.01c.12.098.246.197.373.292a.076.076 0 0 1 .03.065.078.078 0 0 1-.036.062c-.599.35-1.225.648-1.873.892a.076.076 0 0 0-.045.044.078.078 0 0 0 .004.062c.36.698.772 1.363 1.225 1.994a.077.077 0 0 0 .084.028 19.839 19.839 0 0 0 6.002-3.03.077.077 0 0 0 .032-.054c.5-5.177-.838-9.674-3.549-13.66a.06.06 0 0 0-.031-.03ZM8.02 12.803c-1.182 0-2.157-1.086-2.157-2.419S6.82 7.964 8.02 7.964c1.21 0 2.176 1.095 2.157 2.42 0 1.332-.956 2.418-2.157 2.418Zm7.975 0c-1.183 0-2.157-1.086-2.157-2.419s.955-2.419 2.157-2.419c1.21 0 2.176 1.095 2.157 2.42 0 1.332-.946 2.418-2.157 2.418Z"/></svg>