<svg xmlns="http://www.w3.org/2000/svg" width="25" height="25" fill="none" viewBox="0 0 25 25"><path fill="#fff" d="M20.947 20.923h-3.554v-5.57c0-1.327-.027-3.036-1.852-3.036-1.853 0-2.136 1.445-2.136 2.939v5.667H9.851V9.47h3.414v1.56h.046c.477-.9 1.637-1.85 3.37-1.85 3.601 0 4.267 2.37 4.267 5.456l-.001 6.286ZM5.837 7.903A2.062 2.062 0 0 1 3.774 5.84a2.064 2.064 0 1 1 2.063 2.065Zm1.782 13.02H4.055V9.47h3.564v11.452ZM22.725.47H2.271C1.292.47.5 1.245.5 2.2v20.542c0 .956.792 1.729 1.771 1.729h20.451c.978 0 1.778-.773 1.778-1.73V2.2c0-.955-.8-1.73-1.778-1.73h.003Z"/></svg>